<mxfile host="app.diagrams.net" modified="2023-09-01T20:05:21.217Z" agent="Mozilla/5.0 (Macintosh; Intel Mac OS X 10.15; rv:109.0) Gecko/20100101 Firefox/117.0" etag="oxybPF01fMMSIex3Ev9m" version="21.7.2" type="github">
  <diagram name="Page-1" id="xahvDrkJEuqIDRUj0cCG">
    <mxGraphModel dx="810" dy="513" grid="1" gridSize="10" guides="1" tooltips="1" connect="1" arrows="1" fold="1" page="1" pageScale="1" pageWidth="850" pageHeight="1100" math="0" shadow="0">
      <root>
        <mxCell id="0" />
        <mxCell id="1" parent="0" />
        <mxCell id="Sd0Oj9vTjqKce8r1ZWQH-1" value="" style="rounded=0;whiteSpace=wrap;html=1;labelBackgroundColor=none;fillColor=#182E3E;strokeColor=#FFFFFF;fontColor=#FFFFFF;" vertex="1" parent="1">
          <mxGeometry x="220" y="140" width="230" height="60" as="geometry" />
        </mxCell>
        <mxCell id="Sd0Oj9vTjqKce8r1ZWQH-4" value="" style="rounded=0;whiteSpace=wrap;html=1;labelBackgroundColor=none;fillColor=#000000;strokeColor=#FFFFFF;" vertex="1" parent="1">
          <mxGeometry x="230" y="170" width="170" height="20" as="geometry" />
        </mxCell>
        <mxCell id="Sd0Oj9vTjqKce8r1ZWQH-2" value="" style="rounded=0;whiteSpace=wrap;html=1;labelBackgroundColor=none;" vertex="1" parent="1">
          <mxGeometry x="230" y="170" width="130" height="20" as="geometry" />
        </mxCell>
        <mxCell id="Sd0Oj9vTjqKce8r1ZWQH-3" value="&lt;font style=&quot;font-size: 22px;&quot;&gt;85&lt;/font&gt;" style="text;html=1;strokeColor=none;fillColor=none;align=center;verticalAlign=middle;whiteSpace=wrap;rounded=0;labelBackgroundColor=none;fontColor=#FFFFFF;" vertex="1" parent="1">
          <mxGeometry x="390" y="168" width="60" height="30" as="geometry" />
        </mxCell>
        <mxCell id="Sd0Oj9vTjqKce8r1ZWQH-5" value="&lt;font style=&quot;font-size: 18px;&quot;&gt;Parameter Name&lt;/font&gt;" style="text;html=1;strokeColor=none;fillColor=none;align=center;verticalAlign=middle;whiteSpace=wrap;rounded=0;labelBackgroundColor=none;fontColor=#FFFFFF;" vertex="1" parent="1">
          <mxGeometry x="221" y="143" width="160" height="30" as="geometry" />
        </mxCell>
        <mxCell id="Sd0Oj9vTjqKce8r1ZWQH-6" value="" style="ellipse;whiteSpace=wrap;html=1;aspect=fixed;strokeColor=#FFFFFF;fontColor=#FFFFFF;fillColor=#182E3E;" vertex="1" parent="1">
          <mxGeometry x="295" y="230" width="80" height="80" as="geometry" />
        </mxCell>
      </root>
    </mxGraphModel>
  </diagram>
</mxfile>
